# xmcd
#
# Track frame offsets:
#        150
#        17525
#        33129
#        49226
#        68871
#        88354
#        109060
#        132738
#        143366
#        158056
#        176644
#        198534
#
# Disc length: 2864 seconds
#
# Revision: 1
# Processed by: cddbd v1.5.2PL0 Copyright (c) Steve Scherf et al.
# Submitted via: jack 3.1.1
#
DISCID=a40b2e0c
DTITLE=Tim O'Brien - Fiddler's Green
DYEAR=2005
DGENRE=Bluegrass
TTITLE0=Pretty Fair Maid In The Garden
TTITLE1=Look Down That Lonesome Road
TTITLE2=Fiddler's Green
TTITLE3=Land's End/Chasin' Talon
TTITLE4=Fair Flowers of The Valley
TTITLE5=Foreign Lander
TTITLE6=Buffalo Skinners
TTITLE7=First Snow
TTITLE8=Train On The Island
TTITLE9=Long Black Veil
TTITLE10=A Few More Years
TTITLE11=Early Morning Rain
EXTD=
EXTT0=
EXTT1=
EXTT2=
EXTT3=
EXTT4=
EXTT5=
EXTT6=
EXTT7=
EXTT8=
EXTT9=
EXTT10=
EXTT11=
PLAYORDER=
